<mxfile host="Electron" agent="Mozilla/5.0 (Windows NT 10.0; Win64; x64) AppleWebKit/537.36 (KHTML, like Gecko) draw.io/25.0.1 Chrome/128.0.6613.186 Electron/32.2.6 Safari/537.36" version="25.0.1">
  <diagram name="Page-1" id="hRaVS1pTuc548OMhi2-5">
    <mxGraphModel dx="1016" dy="1642" grid="1" gridSize="10" guides="1" tooltips="1" connect="1" arrows="1" fold="1" page="1" pageScale="1" pageWidth="850" pageHeight="1100" background="none" math="0" shadow="0">
      <root>
        <mxCell id="0" />
        <mxCell id="1" parent="0" />
        <mxCell id="SmSqU5Tu3EiC8dxe_-Gg-26" style="edgeStyle=orthogonalEdgeStyle;rounded=0;orthogonalLoop=1;jettySize=auto;html=1;exitX=0.833;exitY=1.056;exitDx=0;exitDy=0;entryX=1;entryY=0.5;entryDx=0;entryDy=0;exitPerimeter=0;" parent="1" edge="1">
          <mxGeometry relative="1" as="geometry">
            <mxPoint x="37.50000000000009" y="56.680000000000064" as="sourcePoint" />
            <mxPoint x="470.85" y="635" as="targetPoint" />
            <Array as="points">
              <mxPoint x="70" y="57" />
              <mxPoint x="70" />
              <mxPoint x="794" />
              <mxPoint x="794" y="635" />
            </Array>
          </mxGeometry>
        </mxCell>
        <mxCell id="G01sJh4HNSgmtfhRcnJe-1" style="edgeStyle=orthogonalEdgeStyle;rounded=0;orthogonalLoop=1;jettySize=auto;html=1;exitX=0.75;exitY=0;exitDx=0;exitDy=0;entryX=1;entryY=0.5;entryDx=0;entryDy=0;" parent="1" source="OCb87p4yVKoxGsTXULzd-1" target="OCb87p4yVKoxGsTXULzd-8" edge="1">
          <mxGeometry relative="1" as="geometry">
            <mxPoint x="520" y="140" as="targetPoint" />
            <Array as="points">
              <mxPoint x="88" y="35" />
              <mxPoint x="700" y="35" />
              <mxPoint x="700" y="125" />
            </Array>
          </mxGeometry>
        </mxCell>
        <mxCell id="OCb87p4yVKoxGsTXULzd-1" value="&lt;u&gt;UserID&lt;/u&gt;" style="rounded=1;whiteSpace=wrap;html=1;fillColor=#fff2cc;strokeColor=#d6b656;" parent="1" vertex="1">
          <mxGeometry x="20" y="55" width="90" height="30" as="geometry" />
        </mxCell>
        <mxCell id="OCb87p4yVKoxGsTXULzd-2" value="UserName" style="rounded=1;whiteSpace=wrap;html=1;" parent="1" vertex="1">
          <mxGeometry x="110" y="55" width="90" height="30" as="geometry" />
        </mxCell>
        <mxCell id="OCb87p4yVKoxGsTXULzd-3" value="Password" style="rounded=1;whiteSpace=wrap;html=1;" parent="1" vertex="1">
          <mxGeometry x="200" y="55" width="90" height="30" as="geometry" />
        </mxCell>
        <mxCell id="OCb87p4yVKoxGsTXULzd-8" value="&lt;i&gt;UserID&lt;/i&gt;" style="rounded=1;whiteSpace=wrap;html=1;fillColor=#fff2cc;strokeColor=#d6b656;" parent="1" vertex="1">
          <mxGeometry x="110" y="110" width="90" height="30" as="geometry" />
        </mxCell>
        <mxCell id="OCb87p4yVKoxGsTXULzd-9" value="Role" style="rounded=1;whiteSpace=wrap;html=1;" parent="1" vertex="1">
          <mxGeometry x="555" y="55" width="90" height="30" as="geometry" />
        </mxCell>
        <mxCell id="OCb87p4yVKoxGsTXULzd-10" value="City" style="rounded=1;whiteSpace=wrap;html=1;" parent="1" vertex="1">
          <mxGeometry x="287.5" y="55" width="90" height="30" as="geometry" />
        </mxCell>
        <mxCell id="OCb87p4yVKoxGsTXULzd-12" value="Quantity" style="rounded=1;whiteSpace=wrap;html=1;" parent="1" vertex="1">
          <mxGeometry x="20" y="720" width="90" height="30" as="geometry" />
        </mxCell>
        <mxCell id="OCb87p4yVKoxGsTXULzd-18" value="OrderID" style="rounded=1;whiteSpace=wrap;html=1;fillColor=#bac8d3;strokeColor=#23445d;" parent="1" vertex="1">
          <mxGeometry x="110" y="720" width="90" height="30" as="geometry" />
        </mxCell>
        <mxCell id="OCb87p4yVKoxGsTXULzd-19" value="MenuItemsID" style="rounded=1;whiteSpace=wrap;html=1;fillColor=#bac8d3;strokeColor=#23445d;" parent="1" vertex="1">
          <mxGeometry x="200" y="720" width="90" height="30" as="geometry" />
        </mxCell>
        <mxCell id="OCb87p4yVKoxGsTXULzd-22" value="&lt;font style=&quot;font-size: 14px;&quot;&gt;&lt;b style=&quot;&quot;&gt;User&lt;/b&gt;&lt;/font&gt;" style="text;html=1;align=center;verticalAlign=middle;resizable=0;points=[];autosize=1;strokeColor=none;fillColor=none;shadow=1;" parent="1" vertex="1">
          <mxGeometry x="20" y="25" width="50" height="30" as="geometry" />
        </mxCell>
        <mxCell id="SmSqU5Tu3EiC8dxe_-Gg-12" style="edgeStyle=orthogonalEdgeStyle;rounded=0;orthogonalLoop=1;jettySize=auto;html=1;exitX=0.75;exitY=0;exitDx=0;exitDy=0;entryX=1;entryY=0.5;entryDx=0;entryDy=0;" parent="1" source="OCb87p4yVKoxGsTXULzd-25" target="SmSqU5Tu3EiC8dxe_-Gg-7" edge="1">
          <mxGeometry relative="1" as="geometry">
            <Array as="points">
              <mxPoint x="85" y="210" />
              <mxPoint x="450" y="210" />
              <mxPoint x="450" y="325" />
            </Array>
          </mxGeometry>
        </mxCell>
        <mxCell id="SmSqU5Tu3EiC8dxe_-Gg-18" style="edgeStyle=orthogonalEdgeStyle;rounded=0;orthogonalLoop=1;jettySize=auto;html=1;exitX=0.25;exitY=0;exitDx=0;exitDy=0;entryX=1;entryY=0.5;entryDx=0;entryDy=0;" parent="1" source="OCb87p4yVKoxGsTXULzd-25" target="SmSqU5Tu3EiC8dxe_-Gg-13" edge="1">
          <mxGeometry relative="1" as="geometry">
            <Array as="points">
              <mxPoint x="40" y="170" />
              <mxPoint x="570" y="170" />
              <mxPoint x="570" y="415" />
            </Array>
          </mxGeometry>
        </mxCell>
        <mxCell id="SmSqU5Tu3EiC8dxe_-Gg-24" style="edgeStyle=orthogonalEdgeStyle;rounded=0;orthogonalLoop=1;jettySize=auto;html=1;exitX=0.5;exitY=0;exitDx=0;exitDy=0;entryX=1;entryY=0.5;entryDx=0;entryDy=0;" parent="1" source="OCb87p4yVKoxGsTXULzd-25" target="OCb87p4yVKoxGsTXULzd-34" edge="1">
          <mxGeometry relative="1" as="geometry">
            <Array as="points">
              <mxPoint x="63" y="190" />
              <mxPoint x="540" y="190" />
              <mxPoint x="540" y="505" />
            </Array>
          </mxGeometry>
        </mxCell>
        <mxCell id="OCb87p4yVKoxGsTXULzd-25" value="&lt;u&gt;RestaurantID&lt;/u&gt;" style="rounded=1;whiteSpace=wrap;html=1;arcSize=36;fillColor=#f8cecc;strokeColor=#b85450;" parent="1" vertex="1">
          <mxGeometry x="17.5" y="230" width="90" height="30" as="geometry" />
        </mxCell>
        <mxCell id="OCb87p4yVKoxGsTXULzd-26" value="Name" style="rounded=1;whiteSpace=wrap;html=1;" parent="1" vertex="1">
          <mxGeometry x="107.5" y="230" width="90" height="30" as="geometry" />
        </mxCell>
        <mxCell id="OCb87p4yVKoxGsTXULzd-27" value="City" style="rounded=1;whiteSpace=wrap;html=1;" parent="1" vertex="1">
          <mxGeometry x="197.5" y="230" width="90" height="30" as="geometry" />
        </mxCell>
        <mxCell id="SmSqU5Tu3EiC8dxe_-Gg-28" style="edgeStyle=orthogonalEdgeStyle;rounded=0;orthogonalLoop=1;jettySize=auto;html=1;exitX=0.75;exitY=0;exitDx=0;exitDy=0;entryX=1;entryY=0.5;entryDx=0;entryDy=0;" parent="1" source="OCb87p4yVKoxGsTXULzd-30" target="OCb87p4yVKoxGsTXULzd-19" edge="1">
          <mxGeometry relative="1" as="geometry">
            <Array as="points">
              <mxPoint x="88" y="450" />
              <mxPoint x="760" y="450" />
              <mxPoint x="760" y="735" />
            </Array>
          </mxGeometry>
        </mxCell>
        <mxCell id="OCb87p4yVKoxGsTXULzd-30" value="&lt;u&gt;MenuItemID&lt;/u&gt;" style="rounded=1;whiteSpace=wrap;html=1;fillColor=#e1d5e7;strokeColor=#9673a6;" parent="1" vertex="1">
          <mxGeometry x="20" y="490" width="90" height="30" as="geometry" />
        </mxCell>
        <mxCell id="OCb87p4yVKoxGsTXULzd-31" value="ItemName" style="rounded=1;whiteSpace=wrap;html=1;" parent="1" vertex="1">
          <mxGeometry x="110" y="490" width="90" height="30" as="geometry" />
        </mxCell>
        <mxCell id="OCb87p4yVKoxGsTXULzd-32" value="Description" style="rounded=1;whiteSpace=wrap;html=1;" parent="1" vertex="1">
          <mxGeometry x="200" y="490" width="90" height="30" as="geometry" />
        </mxCell>
        <mxCell id="OCb87p4yVKoxGsTXULzd-33" value="Price" style="rounded=1;whiteSpace=wrap;html=1;" parent="1" vertex="1">
          <mxGeometry x="290" y="490" width="90" height="30" as="geometry" />
        </mxCell>
        <mxCell id="OCb87p4yVKoxGsTXULzd-34" value="RestaurantID" style="rounded=1;whiteSpace=wrap;html=1;fillColor=#f8cecc;strokeColor=#b85450;" parent="1" vertex="1">
          <mxGeometry x="380" y="490" width="90" height="30" as="geometry" />
        </mxCell>
        <mxCell id="OCb87p4yVKoxGsTXULzd-35" value="&lt;b&gt;&lt;font style=&quot;font-size: 14px;&quot;&gt;Restaurant&lt;/font&gt;&lt;/b&gt;" style="text;html=1;align=center;verticalAlign=middle;resizable=0;points=[];autosize=1;strokeColor=none;fillColor=none;" parent="1" vertex="1">
          <mxGeometry x="40" y="210" width="100" height="30" as="geometry" />
        </mxCell>
        <mxCell id="OCb87p4yVKoxGsTXULzd-36" value="&lt;span style=&quot;font-size: 14px;&quot;&gt;&lt;b&gt;MenuItems&lt;/b&gt;&lt;/span&gt;" style="text;html=1;align=center;verticalAlign=middle;resizable=0;points=[];autosize=1;strokeColor=none;fillColor=none;" parent="1" vertex="1">
          <mxGeometry x="10" y="460" width="100" height="30" as="geometry" />
        </mxCell>
        <mxCell id="OCb87p4yVKoxGsTXULzd-38" value="&lt;span style=&quot;font-size: 14px;&quot;&gt;&lt;b&gt;OrderDetailes&lt;/b&gt;&lt;/span&gt;" style="text;html=1;align=center;verticalAlign=middle;resizable=0;points=[];autosize=1;strokeColor=none;fillColor=none;" parent="1" vertex="1">
          <mxGeometry x="7.5" y="690" width="120" height="30" as="geometry" />
        </mxCell>
        <mxCell id="OCb87p4yVKoxGsTXULzd-41" value="&lt;u&gt;DeliveryID&lt;/u&gt;" style="rounded=1;whiteSpace=wrap;html=1;fillColor=#ffff88;strokeColor=#36393d;" parent="1" vertex="1">
          <mxGeometry x="25" y="910" width="90" height="30" as="geometry" />
        </mxCell>
        <mxCell id="OCb87p4yVKoxGsTXULzd-42" value="DeliveryAddress" style="rounded=1;whiteSpace=wrap;html=1;" parent="1" vertex="1">
          <mxGeometry x="115" y="910" width="110" height="30" as="geometry" />
        </mxCell>
        <mxCell id="OCb87p4yVKoxGsTXULzd-43" value="DeliveryStatus" style="rounded=1;whiteSpace=wrap;html=1;" parent="1" vertex="1">
          <mxGeometry x="225" y="910" width="90" height="30" as="geometry" />
        </mxCell>
        <mxCell id="OCb87p4yVKoxGsTXULzd-44" value="DeliveryTime" style="rounded=1;whiteSpace=wrap;html=1;" parent="1" vertex="1">
          <mxGeometry x="315" y="910" width="90" height="30" as="geometry" />
        </mxCell>
        <mxCell id="OCb87p4yVKoxGsTXULzd-45" value="OrderID" style="rounded=1;whiteSpace=wrap;html=1;fillColor=#d5e8d4;strokeColor=#82b366;" parent="1" vertex="1">
          <mxGeometry x="405" y="910" width="90" height="30" as="geometry" />
        </mxCell>
        <mxCell id="OCb87p4yVKoxGsTXULzd-46" value="&lt;u&gt;FeedbackID&lt;/u&gt;" style="rounded=1;whiteSpace=wrap;html=1;fillColor=#eeeeee;strokeColor=#36393d;" parent="1" vertex="1">
          <mxGeometry x="27.5" y="1010" width="90" height="30" as="geometry" />
        </mxCell>
        <mxCell id="OCb87p4yVKoxGsTXULzd-47" value="Rating&amp;nbsp;" style="rounded=1;whiteSpace=wrap;html=1;" parent="1" vertex="1">
          <mxGeometry x="117.5" y="1010" width="90" height="30" as="geometry" />
        </mxCell>
        <mxCell id="OCb87p4yVKoxGsTXULzd-48" value="Comments" style="rounded=1;whiteSpace=wrap;html=1;" parent="1" vertex="1">
          <mxGeometry x="207.5" y="1010" width="90" height="30" as="geometry" />
        </mxCell>
        <mxCell id="OCb87p4yVKoxGsTXULzd-49" value="FeedbackTime" style="rounded=1;whiteSpace=wrap;html=1;" parent="1" vertex="1">
          <mxGeometry x="297.5" y="1010" width="90" height="30" as="geometry" />
        </mxCell>
        <mxCell id="OCb87p4yVKoxGsTXULzd-52" value="&lt;span style=&quot;font-size: 14px;&quot;&gt;&lt;b&gt;Delivery&lt;/b&gt;&lt;/span&gt;" style="text;html=1;align=center;verticalAlign=middle;resizable=0;points=[];autosize=1;strokeColor=none;fillColor=none;" parent="1" vertex="1">
          <mxGeometry x="20" y="880" width="80" height="30" as="geometry" />
        </mxCell>
        <mxCell id="OCb87p4yVKoxGsTXULzd-53" value="&lt;span style=&quot;font-size: 14px;&quot;&gt;&lt;b&gt;Feedback&lt;/b&gt;&lt;/span&gt;" style="text;html=1;align=center;verticalAlign=middle;resizable=0;points=[];autosize=1;strokeColor=none;fillColor=none;" parent="1" vertex="1">
          <mxGeometry x="22.5" y="980" width="90" height="30" as="geometry" />
        </mxCell>
        <mxCell id="pnq8J6ijFzVr6bFhjXtC-1" value="OrderID" style="rounded=1;whiteSpace=wrap;html=1;fillColor=#d5e8d4;strokeColor=#82b366;" parent="1" vertex="1">
          <mxGeometry x="387.5" y="1010" width="90" height="30" as="geometry" />
        </mxCell>
        <mxCell id="pnq8J6ijFzVr6bFhjXtC-2" value="" style="endArrow=none;html=1;rounded=0;" parent="1" edge="1">
          <mxGeometry width="50" height="50" relative="1" as="geometry">
            <mxPoint x="130" y="740" as="sourcePoint" />
            <mxPoint x="280" y="740" as="targetPoint" />
          </mxGeometry>
        </mxCell>
        <mxCell id="SmSqU5Tu3EiC8dxe_-Gg-30" style="edgeStyle=orthogonalEdgeStyle;rounded=0;orthogonalLoop=1;jettySize=auto;html=1;exitX=0;exitY=0;exitDx=0;exitDy=0;entryX=1;entryY=0.5;entryDx=0;entryDy=0;" parent="1" source="pnq8J6ijFzVr6bFhjXtC-3" target="pnq8J6ijFzVr6bFhjXtC-1" edge="1">
          <mxGeometry relative="1" as="geometry">
            <Array as="points">
              <mxPoint x="20" y="620" />
              <mxPoint x="20" y="540" />
              <mxPoint x="740" y="540" />
              <mxPoint x="740" y="1025" />
            </Array>
          </mxGeometry>
        </mxCell>
        <mxCell id="SmSqU5Tu3EiC8dxe_-Gg-40" style="edgeStyle=orthogonalEdgeStyle;rounded=0;orthogonalLoop=1;jettySize=auto;html=1;exitX=0.5;exitY=0;exitDx=0;exitDy=0;entryX=1;entryY=0.5;entryDx=0;entryDy=0;" parent="1" source="pnq8J6ijFzVr6bFhjXtC-3" edge="1">
          <mxGeometry relative="1" as="geometry">
            <Array as="points">
              <mxPoint x="65" y="620" />
              <mxPoint x="65" y="560" />
              <mxPoint x="670" y="560" />
              <mxPoint x="670" y="835" />
            </Array>
            <mxPoint x="577.5" y="835" as="targetPoint" />
          </mxGeometry>
        </mxCell>
        <mxCell id="SmSqU5Tu3EiC8dxe_-Gg-41" style="edgeStyle=orthogonalEdgeStyle;rounded=0;orthogonalLoop=1;jettySize=auto;html=1;exitX=0.25;exitY=0;exitDx=0;exitDy=0;entryX=1;entryY=0.5;entryDx=0;entryDy=0;" parent="1" source="pnq8J6ijFzVr6bFhjXtC-3" target="OCb87p4yVKoxGsTXULzd-45" edge="1">
          <mxGeometry relative="1" as="geometry">
            <mxPoint x="630" y="860.8333587646484" as="targetPoint" />
            <Array as="points">
              <mxPoint x="43" y="620" />
              <mxPoint x="43" y="550" />
              <mxPoint x="700" y="550" />
              <mxPoint x="700" y="925" />
            </Array>
          </mxGeometry>
        </mxCell>
        <mxCell id="pnq8J6ijFzVr6bFhjXtC-3" value="&lt;u&gt;OrderID&lt;/u&gt;" style="rounded=1;whiteSpace=wrap;html=1;fillColor=#d5e8d4;strokeColor=#82b366;" parent="1" vertex="1">
          <mxGeometry x="17.5" y="620" width="90" height="30" as="geometry" />
        </mxCell>
        <mxCell id="pnq8J6ijFzVr6bFhjXtC-4" value="OrderTime" style="rounded=1;whiteSpace=wrap;html=1;fillColor=none;" parent="1" vertex="1">
          <mxGeometry x="287.5" y="620" width="90" height="30" as="geometry" />
        </mxCell>
        <mxCell id="pnq8J6ijFzVr6bFhjXtC-5" value="TotalPrice" style="rounded=1;whiteSpace=wrap;html=1;fillColor=none;" parent="1" vertex="1">
          <mxGeometry x="197.5" y="620" width="90" height="30" as="geometry" />
        </mxCell>
        <mxCell id="pnq8J6ijFzVr6bFhjXtC-7" value="OrderStatus" style="rounded=1;whiteSpace=wrap;html=1;fillColor=none;" parent="1" vertex="1">
          <mxGeometry x="107.5" y="620" width="90" height="30" as="geometry" />
        </mxCell>
        <mxCell id="pnq8J6ijFzVr6bFhjXtC-8" value="UserID" style="rounded=1;whiteSpace=wrap;html=1;fillColor=#fff2cc;strokeColor=#d6b656;" parent="1" vertex="1">
          <mxGeometry x="375" y="620" width="90" height="30" as="geometry" />
        </mxCell>
        <mxCell id="pnq8J6ijFzVr6bFhjXtC-9" value="&lt;b&gt;&lt;font style=&quot;font-size: 14px;&quot;&gt;Order&amp;nbsp;&lt;/font&gt;&lt;/b&gt;" style="text;html=1;align=center;verticalAlign=middle;resizable=0;points=[];autosize=1;strokeColor=none;fillColor=none;" parent="1" vertex="1">
          <mxGeometry x="17.5" y="590" width="70" height="30" as="geometry" />
        </mxCell>
        <mxCell id="SmSqU5Tu3EiC8dxe_-Gg-1" value="PhoneNumber" style="rounded=1;whiteSpace=wrap;html=1;" parent="1" vertex="1">
          <mxGeometry x="20" y="110" width="90" height="30" as="geometry" />
        </mxCell>
        <mxCell id="SmSqU5Tu3EiC8dxe_-Gg-2" value="&lt;font style=&quot;font-size: 14px;&quot;&gt;&lt;b&gt;UserPhones&lt;/b&gt;&lt;/font&gt;" style="text;html=1;align=center;verticalAlign=middle;resizable=0;points=[];autosize=1;strokeColor=none;fillColor=none;" parent="1" vertex="1">
          <mxGeometry x="37.5" y="90" width="110" height="30" as="geometry" />
        </mxCell>
        <mxCell id="SmSqU5Tu3EiC8dxe_-Gg-3" value="" style="endArrow=none;dashed=1;html=1;dashPattern=1 3;strokeWidth=2;rounded=0;" parent="1" edge="1">
          <mxGeometry width="50" height="50" relative="1" as="geometry">
            <mxPoint x="130" y="130" as="sourcePoint" />
            <mxPoint x="180" y="130" as="targetPoint" />
          </mxGeometry>
        </mxCell>
        <mxCell id="SmSqU5Tu3EiC8dxe_-Gg-6" value="" style="endArrow=none;html=1;rounded=0;exitX=0;exitY=0.75;exitDx=0;exitDy=0;entryX=1;entryY=0.75;entryDx=0;entryDy=0;" parent="1" source="SmSqU5Tu3EiC8dxe_-Gg-1" target="OCb87p4yVKoxGsTXULzd-8" edge="1">
          <mxGeometry width="50" height="50" relative="1" as="geometry">
            <mxPoint x="60" y="130" as="sourcePoint" />
            <mxPoint x="170" y="130" as="targetPoint" />
          </mxGeometry>
        </mxCell>
        <mxCell id="SmSqU5Tu3EiC8dxe_-Gg-7" value="&lt;i&gt;RestaurantID&lt;/i&gt;" style="rounded=1;whiteSpace=wrap;html=1;fillColor=#f8cecc;strokeColor=#b85450;" parent="1" vertex="1">
          <mxGeometry x="107.5" y="310" width="90" height="30" as="geometry" />
        </mxCell>
        <mxCell id="SmSqU5Tu3EiC8dxe_-Gg-8" value="PhoneNumber" style="rounded=1;whiteSpace=wrap;html=1;" parent="1" vertex="1">
          <mxGeometry x="17.5" y="310" width="90" height="30" as="geometry" />
        </mxCell>
        <mxCell id="SmSqU5Tu3EiC8dxe_-Gg-9" value="&lt;font style=&quot;font-size: 14px;&quot;&gt;&lt;b&gt;RestaurentPhones&lt;/b&gt;&lt;/font&gt;" style="text;html=1;align=center;verticalAlign=middle;resizable=0;points=[];autosize=1;strokeColor=none;fillColor=none;" parent="1" vertex="1">
          <mxGeometry x="17.5" y="280" width="150" height="30" as="geometry" />
        </mxCell>
        <mxCell id="SmSqU5Tu3EiC8dxe_-Gg-10" value="" style="endArrow=none;dashed=1;html=1;dashPattern=1 3;strokeWidth=2;rounded=0;" parent="1" edge="1">
          <mxGeometry width="50" height="50" relative="1" as="geometry">
            <mxPoint x="507.5" y="849.44" as="sourcePoint" />
            <mxPoint x="557.5" y="849.44" as="targetPoint" />
          </mxGeometry>
        </mxCell>
        <mxCell id="SmSqU5Tu3EiC8dxe_-Gg-11" value="" style="endArrow=none;html=1;rounded=0;exitX=0;exitY=0.75;exitDx=0;exitDy=0;entryX=1;entryY=0.75;entryDx=0;entryDy=0;" parent="1" source="SmSqU5Tu3EiC8dxe_-Gg-8" target="SmSqU5Tu3EiC8dxe_-Gg-7" edge="1">
          <mxGeometry width="50" height="50" relative="1" as="geometry">
            <mxPoint x="65" y="330" as="sourcePoint" />
            <mxPoint x="175" y="330" as="targetPoint" />
          </mxGeometry>
        </mxCell>
        <mxCell id="SmSqU5Tu3EiC8dxe_-Gg-13" value="&lt;i&gt;RestaurantID&lt;/i&gt;" style="rounded=1;whiteSpace=wrap;html=1;fillColor=#f8cecc;strokeColor=#b85450;" parent="1" vertex="1">
          <mxGeometry x="107.5" y="400" width="90" height="30" as="geometry" />
        </mxCell>
        <mxCell id="SmSqU5Tu3EiC8dxe_-Gg-14" value="CusineType" style="rounded=1;whiteSpace=wrap;html=1;" parent="1" vertex="1">
          <mxGeometry x="17.5" y="400" width="90" height="30" as="geometry" />
        </mxCell>
        <mxCell id="SmSqU5Tu3EiC8dxe_-Gg-15" value="&lt;span style=&quot;font-size: 14px;&quot;&gt;&lt;b&gt;CusineTypes&lt;/b&gt;&lt;/span&gt;" style="text;html=1;align=center;verticalAlign=middle;resizable=0;points=[];autosize=1;strokeColor=none;fillColor=none;" parent="1" vertex="1">
          <mxGeometry x="17.5" y="370" width="110" height="30" as="geometry" />
        </mxCell>
        <mxCell id="SmSqU5Tu3EiC8dxe_-Gg-16" value="" style="endArrow=none;dashed=1;html=1;dashPattern=1 3;strokeWidth=2;rounded=0;" parent="1" edge="1">
          <mxGeometry width="50" height="50" relative="1" as="geometry">
            <mxPoint x="137.5" y="420" as="sourcePoint" />
            <mxPoint x="187.5" y="420" as="targetPoint" />
          </mxGeometry>
        </mxCell>
        <mxCell id="SmSqU5Tu3EiC8dxe_-Gg-17" value="" style="endArrow=none;html=1;rounded=0;exitX=0;exitY=0.75;exitDx=0;exitDy=0;entryX=1;entryY=0.75;entryDx=0;entryDy=0;" parent="1" source="SmSqU5Tu3EiC8dxe_-Gg-14" target="SmSqU5Tu3EiC8dxe_-Gg-13" edge="1">
          <mxGeometry width="50" height="50" relative="1" as="geometry">
            <mxPoint x="67.5" y="420" as="sourcePoint" />
            <mxPoint x="177.5" y="420" as="targetPoint" />
          </mxGeometry>
        </mxCell>
        <mxCell id="SmSqU5Tu3EiC8dxe_-Gg-19" value="Street" style="rounded=1;whiteSpace=wrap;html=1;" parent="1" vertex="1">
          <mxGeometry x="287.5" y="230" width="90" height="30" as="geometry" />
        </mxCell>
        <mxCell id="SmSqU5Tu3EiC8dxe_-Gg-27" style="edgeStyle=orthogonalEdgeStyle;rounded=0;orthogonalLoop=1;jettySize=auto;html=1;exitX=0.75;exitY=0;exitDx=0;exitDy=0;entryX=0.848;entryY=0.067;entryDx=0;entryDy=0;entryPerimeter=0;" parent="1" source="pnq8J6ijFzVr6bFhjXtC-3" target="OCb87p4yVKoxGsTXULzd-18" edge="1">
          <mxGeometry relative="1" as="geometry">
            <Array as="points">
              <mxPoint x="88" y="620" />
              <mxPoint x="88" y="580" />
              <mxPoint x="630" y="580" />
              <mxPoint x="630" y="690" />
              <mxPoint x="186" y="690" />
            </Array>
          </mxGeometry>
        </mxCell>
        <mxCell id="SmSqU5Tu3EiC8dxe_-Gg-31" value="&lt;u&gt;PaymentID&lt;/u&gt;" style="rounded=1;whiteSpace=wrap;html=1;fillColor=#ffe6cc;strokeColor=#d79b00;" parent="1" vertex="1">
          <mxGeometry x="20" y="820" width="90" height="30" as="geometry" />
        </mxCell>
        <mxCell id="SmSqU5Tu3EiC8dxe_-Gg-32" value="PaymentMethod" style="rounded=1;whiteSpace=wrap;html=1;" parent="1" vertex="1">
          <mxGeometry x="107.5" y="820" width="110" height="30" as="geometry" />
        </mxCell>
        <mxCell id="SmSqU5Tu3EiC8dxe_-Gg-33" value="Amount" style="rounded=1;whiteSpace=wrap;html=1;" parent="1" vertex="1">
          <mxGeometry x="217.5" y="820" width="90" height="30" as="geometry" />
        </mxCell>
        <mxCell id="SmSqU5Tu3EiC8dxe_-Gg-34" value="Date" style="rounded=1;whiteSpace=wrap;html=1;" parent="1" vertex="1">
          <mxGeometry x="307.5" y="820" width="90" height="30" as="geometry" />
        </mxCell>
        <mxCell id="SmSqU5Tu3EiC8dxe_-Gg-36" value="&lt;span style=&quot;font-size: 14px;&quot;&gt;&lt;b&gt;Payment&lt;/b&gt;&lt;/span&gt;" style="text;html=1;align=center;verticalAlign=middle;resizable=0;points=[];autosize=1;strokeColor=none;fillColor=none;" parent="1" vertex="1">
          <mxGeometry x="20" y="790" width="80" height="30" as="geometry" />
        </mxCell>
        <mxCell id="SmSqU5Tu3EiC8dxe_-Gg-39" value="Time" style="rounded=1;whiteSpace=wrap;html=1;" parent="1" vertex="1">
          <mxGeometry x="397.5" y="820" width="90" height="30" as="geometry" />
        </mxCell>
        <mxCell id="StU3bxx-UUQZ4WuhI1NT-3" value="" style="endArrow=none;dashed=1;html=1;dashPattern=1 3;strokeWidth=2;rounded=0;" parent="1" edge="1">
          <mxGeometry width="50" height="50" relative="1" as="geometry">
            <mxPoint x="427.5" y="930" as="sourcePoint" />
            <mxPoint x="477.5" y="930" as="targetPoint" />
          </mxGeometry>
        </mxCell>
        <mxCell id="StU3bxx-UUQZ4WuhI1NT-4" value="" style="endArrow=none;dashed=1;html=1;dashPattern=1 3;strokeWidth=2;rounded=0;" parent="1" edge="1">
          <mxGeometry width="50" height="50" relative="1" as="geometry">
            <mxPoint x="407.5" y="1030" as="sourcePoint" />
            <mxPoint x="457.5" y="1030" as="targetPoint" />
          </mxGeometry>
        </mxCell>
        <mxCell id="StU3bxx-UUQZ4WuhI1NT-5" value="" style="endArrow=none;dashed=1;html=1;dashPattern=1 3;strokeWidth=2;rounded=0;" parent="1" edge="1">
          <mxGeometry width="50" height="50" relative="1" as="geometry">
            <mxPoint x="127.5" y="324.5" as="sourcePoint" />
            <mxPoint x="177.5" y="324.5" as="targetPoint" />
            <Array as="points">
              <mxPoint x="150" y="330" />
            </Array>
          </mxGeometry>
        </mxCell>
        <mxCell id="StU3bxx-UUQZ4WuhI1NT-7" value="OrderID" style="rounded=1;whiteSpace=wrap;html=1;fillColor=#d5e8d4;strokeColor=#82b366;" parent="1" vertex="1">
          <mxGeometry x="487.5" y="820" width="90" height="30" as="geometry" />
        </mxCell>
        <mxCell id="1VECTnlICpjQggaNdoyT-1" value="Street" style="rounded=1;whiteSpace=wrap;html=1;" vertex="1" parent="1">
          <mxGeometry x="377.5" y="55" width="90" height="30" as="geometry" />
        </mxCell>
        <mxCell id="1VECTnlICpjQggaNdoyT-2" value="Apartment" style="rounded=1;whiteSpace=wrap;html=1;" vertex="1" parent="1">
          <mxGeometry x="465" y="55" width="90" height="30" as="geometry" />
        </mxCell>
      </root>
    </mxGraphModel>
  </diagram>
</mxfile>
